<svg width="185" height="184" xmlns="http://www.w3.org/2000/svg" xmlns:xlink="http://www.w3.org/1999/xlink"><defs><path id="a" d="M.4.614h8.8v14.087H.4z"/></defs><g fill="none" fill-rule="evenodd"><path d="M43.81 19.333l-3.428-1.615.35 3.774 3.078-2.159zm-5.313-2.318l1.867-1.309 8.792 3.883-1.943 1.362-1.63-.767-4.665 3.274.165 1.79-1.934 1.358-.652-9.59zM46.05 11.904l2.16-1.07 6.237 4.677.051-7.79 2.16-1.07-.236 9.3-2.833 1.402zM67.494 8.233l-2.788-2.567-.796 3.705 3.584-1.138zm-4.375-3.8l2.17-.69 7.228 6.333-2.262.718-1.324-1.218-5.43 1.725-.378 1.76-2.25.715 2.246-9.344zM74.438 1.466l1.987-.366 1.484 8.088-1.988.365zM81.933.254l.61 8.204 7.467-.555-.128-1.711-5.45.405-.483-6.493zM99.165 0l-5.672 7.755 2.352.207 1.027-1.478 5.675.501.752 1.635 2.365.209L101.434.2 99.166 0zm-1.172 4.862l2.162-3.112 1.583 3.442-3.745-.33zM116.321 6.363c.614.163 1.05.073 1.2-.483.152-.569-.18-.877-.793-1.04l-3.645-.973-.395 1.524 3.633.972zm-.578 3.167c.614.162 1.06.038 1.215-.54.152-.569-.164-.933-.778-1.097l-3.883-1.037-.425 1.64 3.871 1.034zm-4.159-7.839l5.983 1.598c1.647.439 2.32 1.568 1.995 2.783-.312 1.17-1.324 1.496-2.686 1.217 1.48.431 2.28 1.352 1.95 2.587-.34 1.273-1.586 1.84-3.13 1.428l-6.233-1.665 2.121-7.948zM125.332 5.856l1.857.8-2.582 5.979 5.018 2.167-.68 1.576-6.875-2.969zM136.732 11.181l6.832 4.187-.897 1.462-5.108-3.131-.798 1.303 5.018 3.076-.841 1.373-5.018-3.077-.867 1.413 5.109 3.13-.896 1.463-6.831-4.186zM153.387 22.762l1.567 1.622-2.582 5.206 5.17-2.527 1.5 1.555-2.704 5.078 5.291-2.4 1.56 1.613-8.028 3.525-1.632-1.69 2.406-4.627-4.707 2.244-1.642-1.697zM167.114 45.804c1.39-.923 1.483-2.438.392-4.084-1.086-1.634-2.52-2.135-3.91-1.212-1.38.917-1.484 2.439-.397 4.073 1.092 1.644 2.534 2.14 3.915 1.223m-4.635-6.98c2.153-1.43 4.68-.725 6.456 1.947 1.78 2.683 1.45 5.287-.703 6.716-2.153 1.43-4.68.726-6.462-1.956-1.775-2.673-1.445-5.276.709-6.707M173.711 56.803c.294.654.658.837 1.13.625.536-.24.626-.64.338-1.284l-1.69-3.77-1.463.667 1.685 3.762zm.45-6.92l2.677 5.97c.695 1.553.244 2.784-.902 3.299-1.201.538-2.32-.12-2.967-1.565l-.346-.772c.688 1.852-.07 3.029-1.962 5.356l-1.046-2.335c1.872-2.513 2.353-3.075 1.786-4.34l-.812-1.812-3.102 1.404-.826-1.843 7.5-3.362zM179.79 63.698l.54 1.948-6.274 1.74 1.46 5.267-1.654.458-2-7.215zM176.827 80.62c.228 1.793 1.17 2.693 2.731 2.495 1.586-.201 2.247-1.327 2.023-3.099l-.238-1.876-4.753.604.237 1.876zm5.964-4.698l.491 3.88c.373 2.947-.806 4.933-3.475 5.27-2.703.343-4.308-1.3-4.68-4.236l-.493-3.88 8.157-1.034z" fill="#1D1D1B"/><g transform="translate(175.1 88.935)"><mask id="b" fill="#fff"><use xlink:href="#a"/></mask><path fill="#1D1D1B" mask="url(#b)" d="M9.2.614l-.12 2.252-5.568 1.657 5.37 2.062-.115 2.158-5.56 1.48 5.362 2.239-.12 2.24-8.048-3.476.124-2.345 5.027-1.392-4.85-1.917.125-2.358z"/></g><path fill="#1D1D1B" d="M182.495 108.643l-.395 1.982-8.065-1.61.395-1.982zM173.456 117.826c-.56 1.72-.09 2.937 1.408 3.423 1.52.495 2.6-.241 3.152-1.94l.585-1.799-4.56-1.483-.585 1.799zm7.402-1.708l-1.21 3.721c-.92 2.828-2.835 4.121-5.394 3.288-2.593-.842-3.345-3.015-2.43-5.831l1.21-3.722 7.824 2.544zM176.081 129.328l-3.596 7.158-1.533-.77 2.69-5.353-1.365-.685-2.642 5.26-1.438-.725 2.642-5.258-1.48-.742-2.69 5.351-1.532-.769 3.596-7.16zM163.3 144.44l-7.605 8.955-1.28-1.087 7.605-8.956zM140.31 164.092l3.424 1.623-.34-3.775-3.084 2.152zm5.306 2.33l-1.869 1.303-8.782-3.902 1.947-1.358 1.626.77 4.675-3.26-.162-1.792 1.938-1.35.627 9.588zM138.061 171.5l-2.16 1.065-6.223-4.686-.067 7.783-2.16 1.065.255-9.29 2.833-1.397zM116.587 175.137l2.782 2.573.805-3.705-3.587 1.132zm4.369 3.812l-2.176.686-7.216-6.355 2.266-.713 1.321 1.223 5.438-1.715.382-1.76 2.254-.71-2.27 9.344zM109.64 181.884l-1.989.36-1.465-8.097 1.989-.36zM102.14 183.071l-2.017.146-.469-6.494-5.451.393-.123-1.713 7.468-.538zM82.333 178.084l1.576 3.449 2.17-3.11-3.746-.339zm2.563 5.2l-2.271-.204-4.21-8.641 2.362.214.75 1.636 5.676.513 1.032-1.476 2.352.212-5.691 7.746zM68.345 173.7c-.614-.164-1.06-.043-1.218.536-.152.567.163.933.775 1.098l3.88 1.05.432-1.637-3.87-1.046zm-.59 3.166c-.612-.167-1.05-.077-1.2.478-.154.567.176.876.79 1.042l3.64.986.4-1.523-3.63-.983zm4.723 4.687l-5.98-1.618c-1.644-.446-2.313-1.576-1.984-2.79.317-1.168 1.329-1.491 2.689-1.208-1.476-.437-2.275-1.358-1.94-2.596.345-1.27 1.592-1.833 3.136-1.416l6.229 1.686-2.15 7.942zM58.75 177.355l-1.853-.805 2.596-5.973-5.013-2.18.684-1.573 6.867 2.985zM47.364 172.001l-6.824-4.204.9-1.46 5.103 3.143.803-1.3-5.014-3.09.844-1.37 5.014 3.09.868-1.412-5.102-3.144.9-1.462 6.825 4.206zM30.736 160.372l-1.562-1.628 2.6-5.198-5.18 2.511-1.498-1.56 2.722-5.072-5.3 2.386-1.554-1.62 8.04-3.5 1.628 1.694-2.422 4.622 4.717-2.23 1.635 1.704zM17.072 137.295c-1.391.92-1.489 2.434-.4 4.083 1.081 1.637 2.512 2.142 3.904 1.222 1.383-.913 1.49-2.435.41-4.073-1.09-1.646-2.53-2.144-3.914-1.232m4.618 6.991c-2.156 1.425-4.681.713-6.45-1.962-1.775-2.687-1.439-5.29.718-6.715 2.158-1.424 4.683-.713 6.458 1.973 1.768 2.676 1.432 5.279-.726 6.704M10.5 126.276c-.291-.655-.656-.84-1.128-.63-.537.24-.628.64-.341 1.285l1.681 3.777 1.466-.665-1.678-3.767zm-.467 6.921l-2.662-5.979c-.692-1.555-.238-2.785.911-3.297 1.202-.535 2.318.125 2.963 1.574l.344.771c-.684-1.854.079-3.03 1.975-5.354l1.042 2.34c-1.88 2.51-2.361 3.07-1.798 4.337l.808 1.813 3.106-1.397.822 1.847-7.511 3.345zM4.446 119.353l-.533-1.948 6.276-1.718-1.442-5.27 1.654-.452 1.976 7.217zM7.448 102.44c-.223-1.793-1.163-2.694-2.726-2.499-1.584.196-2.25 1.32-2.029 3.092l.235 1.875 4.754-.59-.234-1.878zm-5.972 4.685l-.484-3.88c-.367-2.948.818-4.93 3.487-5.262 2.704-.338 4.305 1.31 4.671 4.245l.483 3.88-8.157 1.017zM0 93.53l.125-2.252L5.7 89.634.331 87.56l.12-2.158 5.565-1.47-5.359-2.25.125-2.24 8.044 3.494-.13 2.347-5.032 1.38 4.848 1.928-.131 2.358zM1.85 74.43l.4-1.983 8.066 1.628-.4 1.982zM10.918 65.27c.564-1.718.097-2.934-1.4-3.425-1.518-.498-2.6.236-3.155 1.932l-.59 1.798 4.556 1.494.589-1.798zm-7.405 1.691l1.22-3.717c.925-2.826 2.844-4.114 5.401-3.275 2.59.85 3.337 3.022 2.414 5.837l-1.22 3.718-7.815-2.563zM8.325 53.747l3.616-7.15 1.53.773-2.703 5.348 1.363.689 2.656-5.253 1.436.725-2.655 5.255 1.478.746 2.704-5.348 1.53.774-3.615 7.152zM21.148 38.668l7.634-8.93 1.277 1.09-7.634 8.934z"/></g></svg>